<svg width="32" height="32" viewBox="0 0 32 32" fill="none"
  xmlns="http://www.w3.org/2000/svg">
  <path fill-rule="evenodd" clip-rule="evenodd" d="M16 5.5045C13.2152 5.5045 10.5445 6.61075 8.57538 8.57988C6.60625 10.549 5.5 13.2197 5.5 16.0045V16.6495C5.635 18.9145 8.365 19.3345 10 17.6995C10.5347 17.2243 11.2308 16.9713 11.9459 16.9924C12.6609 17.0134 13.3409 17.3069 13.8468 17.8127C14.3526 18.3186 14.6461 18.9986 14.6671 19.7136C14.6882 20.4287 14.4352 21.1248 13.96 21.6595C12.31 23.3995 12.775 26.2645 15.16 26.4595H16.06C18.8448 26.4595 21.5155 25.3533 23.4846 23.3841C25.4538 21.415 26.56 18.7443 26.56 15.9595C26.56 13.1747 25.4538 10.504 23.4846 8.53488C21.5155 6.56575 18.8448 5.4595 16.06 5.4595L16 5.5045V5.5045ZM16 25.0045H15.22C15.0213 24.9983 14.8307 24.9241 14.68 24.7945C14.5608 24.671 14.4823 24.514 14.455 24.3445C14.4072 24.0522 14.4299 23.7527 14.5212 23.4709C14.6125 23.1891 14.7698 22.9332 14.98 22.7245C15.7607 21.921 16.1974 20.8448 16.1974 19.7245C16.1974 18.6042 15.7607 17.528 14.98 16.7245C14.5802 16.3245 14.1055 16.0071 13.583 15.7906C13.0606 15.5741 12.5006 15.4627 11.935 15.4627C11.3694 15.4627 10.8094 15.5741 10.287 15.7906C9.76448 16.0071 9.28979 16.3245 8.89 16.7245C8.72601 16.9162 8.51633 17.0634 8.28036 17.1525C8.04439 17.2417 7.78975 17.2699 7.54 17.2345C7.41391 17.2104 7.29852 17.1475 7.21 17.0545C7.10694 16.9336 7.05337 16.7782 7.06 16.6195V16.0645C7.06 14.2845 7.58784 12.5444 8.57677 11.0644C9.56571 9.58433 10.9713 8.43078 12.6158 7.74959C14.2604 7.0684 16.07 6.89017 17.8158 7.23744C19.5616 7.5847 21.1653 8.44187 22.424 9.70054C23.6826 10.9592 24.5398 12.5629 24.8871 14.3087C25.2343 16.0545 25.0561 17.8641 24.3749 19.5087C23.6937 21.1532 22.5402 22.5588 21.0601 23.5477C19.5801 24.5367 17.84 25.0645 16.06 25.0645L16 25.0045V25.0045ZM17.5 9.9955C17.5 10.3933 17.342 10.7749 17.0607 11.0562C16.7794 11.3375 16.3978 11.4955 16 11.4955C15.6022 11.4955 15.2206 11.3375 14.9393 11.0562C14.658 10.7749 14.5 10.3933 14.5 9.9955C14.5 9.59768 14.658 9.21615 14.9393 8.93484C15.2206 8.65354 15.6022 8.4955 16 8.4955C16.3978 8.4955 16.7794 8.65354 17.0607 8.93484C17.342 9.21615 17.5 9.59768 17.5 9.9955V9.9955ZM22 20.506C22 20.9038 21.842 21.2854 21.5607 21.5667C21.2794 21.848 20.8978 22.006 20.5 22.006C20.1022 22.006 19.7206 21.848 19.4393 21.5667C19.158 21.2854 19 20.9038 19 20.506C19 20.1082 19.158 19.7266 19.4393 19.4453C19.7206 19.164 20.1022 19.006 20.5 19.006C20.8978 19.006 21.2794 19.164 21.5607 19.4453C21.842 19.7266 22 20.1082 22 20.506V20.506ZM11.5 13.006C11.8978 13.006 12.2794 12.848 12.5607 12.5667C12.842 12.2854 13 11.9038 13 11.506C13 11.1082 12.842 10.7266 12.5607 10.4453C12.2794 10.164 11.8978 10.006 11.5 10.006C11.1022 10.006 10.7206 10.164 10.4393 10.4453C10.158 10.7266 10 11.1082 10 11.506C10 11.9038 10.158 12.2854 10.4393 12.5667C10.7206 12.848 11.1022 13.006 11.5 13.006ZM22 11.506C22 11.9038 21.842 12.2854 21.5607 12.5667C21.2794 12.848 20.8978 13.006 20.5 13.006C20.1022 13.006 19.7206 12.848 19.4393 12.5667C19.158 12.2854 19 11.9038 19 11.506C19 11.1082 19.158 10.7266 19.4393 10.4453C19.7206 10.164 20.1022 10.006 20.5 10.006C20.8978 10.006 21.2794 10.164 21.5607 10.4453C21.842 10.7266 22 11.1082 22 11.506ZM23.5 16C23.5 16.3978 23.342 16.7794 23.0607 17.0607C22.7794 17.342 22.3978 17.5 22 17.5C21.6022 17.5 21.2206 17.342 20.9393 17.0607C20.658 16.7794 20.5 16.3978 20.5 16C20.5 15.6022 20.658 15.2206 20.9393 14.9393C21.2206 14.658 21.6022 14.5 22 14.5C22.3978 14.5 22.7794 14.658 23.0607 14.9393C23.342 15.2206 23.5 15.6022 23.5 16Z" fill="black"/>
</svg>
