<svg width="32" height="32" viewBox="0 0 32 32" fill="none"
  xmlns="http://www.w3.org/2000/svg">
  <path d="M16 19.9994C18.2091 19.9994 20 18.2085 20 15.9994C20 13.7903 18.2091 11.9994 16 11.9994C13.7909 11.9994 12 13.7903 12 15.9994C12 18.2085 13.7909 19.9994 16 19.9994Z" stroke="black" stroke-width="2" stroke-linecap="round" stroke-linejoin="round"/>
  <path d="M20 11.9994V16.9994C20 17.795 20.3161 18.5581 20.8787 19.1207C21.4413 19.6833 22.2044 19.9994 23 19.9994C23.7957 19.9994 24.5587 19.6833 25.1213 19.1207C25.6839 18.5581 26 17.795 26 16.9994V15.9994C25.9999 13.7424 25.2362 11.5519 23.8333 9.78391C22.4303 8.01596 20.4706 6.7746 18.2726 6.26168C16.0747 5.74875 13.7679 5.99442 11.7274 6.95875C9.68677 7.92307 8.03241 9.54933 7.03327 11.5731C6.03413 13.5969 5.74898 15.8991 6.22418 18.1055C6.69938 20.3119 7.90698 22.2926 9.65064 23.7256C11.3943 25.1587 13.5714 25.9597 15.8281 25.9985C18.0847 26.0373 20.2881 25.3116 22.08 23.9394" stroke="black" stroke-width="2" stroke-linecap="round" stroke-linejoin="round"/>
</svg>
