<svg width="32" height="32" viewBox="0 0 32 32" fill="none"
  xmlns="http://www.w3.org/2000/svg">
  <path d="M16 2.66666C8.63596 2.66666 2.66663 8.63599 2.66663 16C2.66663 23.364 8.63596 29.3333 16 29.3333C23.364 29.3333 29.3333 23.364 29.3333 16C29.3333 8.63599 23.364 2.66666 16 2.66666ZM16 27.3333C14.5116 27.3332 13.0377 27.04 11.6627 26.4703C10.2876 25.9007 9.0382 25.0657 7.98581 24.0132C6.93341 22.9607 6.09863 21.7112 5.52912 20.336C4.95961 18.9609 4.66654 17.4871 4.66663 15.9987C4.66671 14.5103 4.95996 13.0364 5.52963 11.6614C6.0993 10.2863 6.93423 9.0369 7.98675 7.9845C9.03927 6.93211 10.2888 6.09732 11.6639 5.52782C13.039 4.95831 14.5129 4.66524 16.0013 4.66532C19.0073 4.6655 21.89 5.85978 24.0154 7.98545C26.1409 10.1111 27.3348 12.994 27.3346 16C27.3344 19.006 26.1402 21.8887 24.0145 24.0141C21.8888 26.1396 19.0059 27.3335 16 27.3333ZM16 16.6667C11.9493 16.6667 8.66663 18.9707 8.66663 21.3333C8.66663 23.696 11.9493 26 16 26C20.0506 26 23.3333 23.696 23.3333 21.3333C23.3333 18.9707 20.0506 16.6667 16 16.6667ZM16 16C17.0608 16 18.0782 15.5786 18.8284 14.8284C19.5785 14.0783 20 13.0609 20 12C20 10.9391 19.5785 9.92171 18.8284 9.17156C18.0782 8.42142 17.0608 7.99999 16 7.99999C14.9391 7.99999 13.9217 8.42142 13.1715 9.17156C12.4214 9.92171 12 10.9391 12 12C12 13.0609 12.4214 14.0783 13.1715 14.8284C13.9217 15.5786 14.9391 16 16 16Z" fill="black"/>
</svg>
