<svg width="32" height="32" viewBox="0 0 32 32" fill="none"
  xmlns="http://www.w3.org/2000/svg">
  <path d="M21 2.66666C21.7956 2.66666 22.5587 2.98273 23.1213 3.54534C23.6839 4.10795 24 4.87101 24 5.66666V26.3333C24 27.129 23.6839 27.892 23.1213 28.4546C22.5587 29.0173 21.7956 29.3333 21 29.3333H11C10.2044 29.3333 9.44129 29.0173 8.87868 28.4546C8.31607 27.892 8 27.129 8 26.3333V5.66666C8 4.87101 8.31607 4.10795 8.87868 3.54534C9.44129 2.98273 10.2044 2.66666 11 2.66666H21ZM21 4.66666H11C10.7348 4.66666 10.4804 4.77201 10.2929 4.95955C10.1054 5.14709 10 5.40144 10 5.66666V26.3333C10 26.8853 10.448 27.3333 11 27.3333H21C21.2652 27.3333 21.5196 27.228 21.7071 27.0404C21.8946 26.8529 22 26.5985 22 26.3333V5.66666C22 5.40144 21.8946 5.14709 21.7071 4.95955C21.5196 4.77201 21.2652 4.66666 21 4.66666ZM17.6653 23.3333C17.9305 23.333 18.185 23.438 18.3728 23.6253C18.5606 23.8126 18.6663 24.0668 18.6667 24.332C18.667 24.5972 18.562 24.8517 18.3747 25.0395C18.1874 25.2273 17.9332 25.333 17.668 25.3333L14.3347 25.3387C14.0695 25.339 13.815 25.234 13.6272 25.0467C13.4394 24.8594 13.3337 24.6052 13.3333 24.34C13.333 24.0748 13.438 23.8203 13.6253 23.6325C13.8126 23.4447 14.0668 23.339 14.332 23.3387L17.6653 23.3333Z" fill="black"/>
</svg>
