<svg width="32" height="32" viewBox="0 0 32 32" fill="none"
  xmlns="http://www.w3.org/2000/svg">
  <path d="M14.488 7.88799C14.5057 7.79108 14.5042 7.69162 14.4835 7.5953C14.4628 7.49897 14.4233 7.40767 14.3673 7.32661C14.3113 7.24554 14.2399 7.1763 14.1571 7.12283C14.0744 7.06936 13.9819 7.03272 13.885 7.01499C13.7881 6.99726 13.6886 6.9988 13.5923 7.01951C13.496 7.04022 13.4047 7.07969 13.3236 7.13569C13.2425 7.19168 13.1733 7.26309 13.1198 7.34585C13.0664 7.4286 13.0297 7.52108 13.012 7.61799L12.307 11.5H9.2425C9.04359 11.5 8.85282 11.579 8.71217 11.7197C8.57152 11.8603 8.4925 12.0511 8.4925 12.25C8.4925 12.4489 8.57152 12.6397 8.71217 12.7803C8.85282 12.921 9.04359 13 9.2425 13H12.0325L10.9405 19H7.75C7.55109 19 7.36032 19.079 7.21967 19.2197C7.07902 19.3603 7 19.5511 7 19.75C7 19.9489 7.07902 20.1397 7.21967 20.2803C7.36032 20.421 7.55109 20.5 7.75 20.5H10.669L10.009 24.115C9.9732 24.3109 10.0167 24.513 10.1299 24.6769C10.2431 24.8408 10.4168 24.9529 10.6128 24.9887C10.8087 25.0245 11.0108 24.9811 11.1747 24.8678C11.3385 24.7546 11.4507 24.5809 11.4865 24.385L12.193 20.5H18.166L17.5075 24.1135C17.4717 24.3092 17.5151 24.5112 17.6282 24.6749C17.7413 24.8386 17.9148 24.9507 18.1105 24.9865C18.3062 25.0223 18.5082 24.9789 18.6719 24.8658C18.8356 24.7527 18.9477 24.5792 18.9835 24.3835L19.6915 20.4985H22.75C22.9489 20.4985 23.1397 20.4195 23.2803 20.2788C23.421 20.1382 23.5 19.9474 23.5 19.7485C23.5 19.5496 23.421 19.3588 23.2803 19.2182C23.1397 19.0775 22.9489 18.9985 22.75 18.9985H19.9645L21.0565 13.0015H24.25C24.4489 13.0015 24.6397 12.9225 24.7803 12.7818C24.921 12.6412 25 12.4504 25 12.2515C25 12.0526 24.921 11.8618 24.7803 11.7212C24.6397 11.5805 24.4489 11.5015 24.25 11.5015H21.331L21.9895 7.88799C22.0251 7.69226 21.9815 7.49041 21.8683 7.32683C21.755 7.16325 21.5815 7.05135 21.3857 7.01574C21.19 6.98014 20.9882 7.02374 20.8246 7.13697C20.661 7.25019 20.5491 7.42376 20.5135 7.61949L19.8055 11.5015H13.831L14.488 7.88649V7.88799ZM13.558 13H19.5325L18.439 19H12.466L13.558 13Z" fill="black"/>
</svg>
