<svg width="32" height="32" viewBox="0 0 32 32" fill="none"
  xmlns="http://www.w3.org/2000/svg">
  <path fill-rule="evenodd" clip-rule="evenodd" d="M15.1051 8.561L11.6751 11.988L10.5411 10.868L12.6111 8.788H7.81106C7.49589 8.788 7.1838 8.85008 6.89262 8.97069C6.60144 9.0913 6.33686 9.26808 6.114 9.49094C5.89114 9.7138 5.71436 9.97838 5.59375 10.2696C5.47314 10.5607 5.41106 10.8728 5.41106 11.188C5.41106 11.5032 5.47314 11.8153 5.59375 12.1064C5.71436 12.3976 5.89114 12.6622 6.114 12.8851C6.33686 13.1079 6.60144 13.2847 6.89262 13.4053C7.1838 13.5259 7.49589 13.588 7.81106 13.588H8.70106V15.188H7.82106C6.79419 15.1392 5.82551 14.697 5.11603 13.953C4.40655 13.2091 4.01074 12.2205 4.01074 11.1925C4.01074 10.1645 4.40655 9.17591 5.11603 8.43195C5.82551 7.68799 6.79419 7.24575 7.82106 7.197H12.6211L10.5401 5.13L11.6751 4L15.1051 7.432V8.562V8.561ZM20.6201 28H11.0201L10.2201 27.2V14.412L11.0201 13.612H20.6201L21.4201 14.412V27.2L20.6201 28ZM11.8201 26.4H19.8201V15.212H11.8201V26.4ZM17.4201 5.602H27.0201L27.8201 6.402V19.188L27.0201 19.988H23.0201V18.388H26.2201V7.2H18.2201V11.987H16.6201V6.401L17.4201 5.601V5.602ZM18.2201 16.788H13.4201V18.388H18.2201V16.788V16.788ZM13.4201 19.988H18.2201V21.588H13.4201V19.988V19.988ZM18.2201 23.188H13.4201V24.788H18.2201V23.188ZM19.8201 8.788H24.6201V10.388H19.8201V8.788V8.788ZM24.6201 15.188H23.0201V16.788H24.6201V15.188ZM21.2821 12.012V11.988H24.6201V13.588H22.8581L21.2821 12.012Z" fill="black"/>
</svg>
