<svg width="32" height="32" viewBox="0 0 32 32" fill="none"
  xmlns="http://www.w3.org/2000/svg">
  <path d="M16 22.6667C12.364 22.6667 8 18.9627 8 16C8 13.0373 12.364 9.33334 16 9.33334C19.636 9.33334 24 13.0373 24 16C24 18.9627 19.636 22.6667 16 22.6667ZM14.6667 16C14.6667 16.3536 14.8071 16.6928 15.0572 16.9428C15.3072 17.1929 15.6464 17.3333 16 17.3333C16.3536 17.3333 16.6928 17.1929 16.9428 16.9428C17.1929 16.6928 17.3333 16.3536 17.3333 16C17.3333 15.6464 17.1929 15.3072 16.9428 15.0572C16.6928 14.8072 16.3536 14.6667 16 14.6667C15.6464 14.6667 15.3072 14.8072 15.0572 15.0572C14.8071 15.3072 14.6667 15.6464 14.6667 16Z" stroke="black" stroke-width="2"/>
</svg>
