<svg width="32" height="32" viewBox="0 0 32 32" fill="none"
  xmlns="http://www.w3.org/2000/svg">
  <path d="M21.6625 13.75L21.4615 13.678L19.759 10.486C19.4392 9.88614 18.9624 9.38447 18.3796 9.03466C17.7967 8.68484 17.1298 8.50004 16.45 8.5H12.163C11.3758 8.49997 10.6085 8.74769 9.96988 9.20806C9.33128 9.66843 8.85377 10.3181 8.605 11.065L7.7935 13.4995C7.11363 13.7861 6.5334 14.2668 6.12544 14.8815C5.71748 15.4963 5.49992 16.2177 5.5 16.9555V18.625C5.5 19.69 6.1345 20.605 7.045 21.0175C7.16291 21.6931 7.50872 22.3078 8.02482 22.7594C8.54092 23.211 9.19616 23.4722 9.8814 23.4993C10.5666 23.5265 11.2405 23.3181 11.7908 22.9088C12.341 22.4996 12.7344 21.9141 12.9055 21.25H19.0945C19.2656 21.9141 19.659 22.4996 20.2092 22.9088C20.7595 23.3181 21.4334 23.5265 22.1186 23.4993C22.8038 23.4722 23.4591 23.211 23.9752 22.7594C24.4913 22.3078 24.8371 21.6931 24.955 21.0175C25.4154 20.8097 25.8061 20.4734 26.0802 20.049C26.3542 19.6246 26.5 19.1302 26.5 18.625V18.1165C26.4999 17.3424 26.2602 16.5873 25.8138 15.9548C25.3675 15.3223 24.7363 14.8435 24.007 14.584L21.742 13.7785V13.75H21.6625ZM12.163 10H13.75V13.75H9.2905L10.027 11.539C10.1763 11.0907 10.463 10.7007 10.8464 10.4245C11.2298 10.1482 11.6905 9.99973 12.163 10V10ZM15.25 10H16.45C16.8579 9.99985 17.2582 10.1106 17.608 10.3204C17.9578 10.5302 18.244 10.8311 18.436 11.191L19.801 13.75H15.25V10ZM21.4045 15.25L23.5045 15.997C23.942 16.1527 24.3207 16.4401 24.5884 16.8195C24.8562 17.199 25 17.6521 25 18.1165V18.625C25 18.8875 24.91 19.129 24.76 19.321C24.5143 18.7443 24.0941 18.259 23.5585 17.9334C23.0228 17.6078 22.3986 17.4581 21.7735 17.5054C21.1485 17.5528 20.5539 17.7947 20.0734 18.1973C19.5929 18.5999 19.2506 19.1429 19.0945 19.75H12.9055C12.7494 19.1429 12.4071 18.5999 11.9266 18.1973C11.4461 17.7947 10.8515 17.5528 10.2265 17.5054C9.60139 17.4581 8.97719 17.6078 8.44154 17.9334C7.90589 18.259 7.4857 18.7443 7.24 19.321C7.08389 19.1227 6.99932 18.8774 7 18.625V16.9555C7 16.2805 7.3 15.6655 7.78 15.25H21.4045ZM8.5 20.5C8.5 20.1022 8.65804 19.7206 8.93934 19.4393C9.22064 19.158 9.60218 19 10 19C10.3978 19 10.7794 19.158 11.0607 19.4393C11.342 19.7206 11.5 20.1022 11.5 20.5C11.5 20.8978 11.342 21.2794 11.0607 21.5607C10.7794 21.842 10.3978 22 10 22C9.60218 22 9.22064 21.842 8.93934 21.5607C8.65804 21.2794 8.5 20.8978 8.5 20.5ZM22 19C22.3978 19 22.7794 19.158 23.0607 19.4393C23.342 19.7206 23.5 20.1022 23.5 20.5C23.5 20.8978 23.342 21.2794 23.0607 21.5607C22.7794 21.842 22.3978 22 22 22C21.6022 22 21.2206 21.842 20.9393 21.5607C20.658 21.2794 20.5 20.8978 20.5 20.5C20.5 20.1022 20.658 19.7206 20.9393 19.4393C21.2206 19.158 21.6022 19 22 19V19Z" fill="black"/>
</svg>
